<?xml version="1.0" encoding="UTF-8"?>
<svg id="_レイヤー_1" data-name="レイヤー 1" xmlns="http://www.w3.org/2000/svg" viewBox="0 0 1000 1000">
  <defs>
    <style>
      .cls-1 {
        fill: #424242;
      }

      .cls-2 {
        fill: none;
      }

      .cls-3 {
        fill: #ffec5c;
      }
    </style>
  </defs>
  <circle class="cls-3" cx="500" cy="500" r="500"/>
  <g>
    <rect class="cls-2" y="0" width="1000" height="1000"/>
    <path class="cls-1" d="M354.37,666.63c-22.3,55.76-60.35,112.18-97.74,146.29-17.06-15.74-55.1-41.98-76.1-53.79,36.08-27.55,66.91-72.16,83.31-115.46l90.53,22.96ZM812.26,430.46h-63.63v277.49c0,43.95-7.87,68.88-33.46,84.62-24.93,15.09-59.04,19.68-104.96,19.68-3.94-26.24-19.02-68.22-32.8-93.15,26.9,1.31,53.79,1.31,63.63,1.31s13.12-3.28,13.12-13.12v-157.44c-34.11,62.98-75.44,118.08-121.36,158.75-13.78-19.02-39.36-47.89-59.04-64.95h-44.61c28.86,32.14,58.38,74.79,72.16,104.96l-80.03,40.02c-12.46-31.49-41.98-78.72-70.19-112.83l73.47-32.14h-198.77V213.98h252.56v417.22c57.73-47.89,109.55-123.33,143.67-200.74h-129.23v-87.9h161.38v-152.19h94.46v152.19h63.63v87.9ZM384.55,288.77h-69.54v46.58h69.54v-46.58ZM384.55,404.88h-69.54v47.23h69.54v-47.23ZM384.55,520.99h-69.54v47.89h69.54v-47.89Z"/>
  </g>
</svg>